<svg fill="none" height="438" viewBox="0 0 325 438" width="325" xmlns="http://www.w3.org/2000/svg" xmlns:xlink="http://www.w3.org/1999/xlink"><mask id="a" height="194" maskUnits="userSpaceOnUse" width="194" x="40" y="0"><circle cx="137" cy="97" fill="#d7deef" r="97"/></mask><mask id="b" height="156" maskUnits="userSpaceOnUse" width="156" x="169" y="282"><circle cx="78" cy="78" fill="#d9d9d9" r="78" transform="matrix(-1 0 0 1 325 282)"/></mask><mask id="c" height="111" maskUnits="userSpaceOnUse" width="111" x="0" y="251"><path d="m14.1977 299.401c0 26.731 21.6699 48.401 48.4011 48.401 26.7313 0 48.4012-21.67 48.4012-48.401s-21.6699-48.401-48.4012-48.401c-26.7312 0-48.4011 21.67-48.4011 48.401z" fill="#b4c9cb"/><path d="m0 306.5c0 30.652 24.8482 55.5 55.5 55.5s55.5-24.848 55.5-55.5-24.8482-55.5-55.5-55.5-55.5 24.848-55.5 55.5z" fill="#b4c9cb"/><path d="m0 306.5c0 30.652 24.8482 55.5 55.5 55.5s55.5-24.848 55.5-55.5-24.8482-55.5-55.5-55.5-55.5 24.848-55.5 55.5z" fill="#b4c9cb"/></mask><g stroke="#0a66c2" stroke-opacity=".1" stroke-width="3"><path d="m142.822 93.9999 106.678 274.5001"/><path d="m142.822 94-81.322 212"/><path d="m247 372-185.5-66"/></g><circle cx="137" cy="97" fill="#d7deef" r="97"/><g mask="url(#a)"><path d="m0 0h302.975v574.815h-302.975z" fill="#d7deef" transform="translate(-58.1975 37.1235)"/><path d="m104.15 71.9107c0-.5195 0-1.2988 0-1.8183 2.072-18.7023 19.165-32.9887 39.106-30.3912 15.021 2.0781 27.194 14.2865 29.265 29.0924 1.295 8.8317-.777 17.1438-5.179 23.8973-4.403 6.7536-.259.2598-.259.2598v.2598c-6.734 10.1305-8.288 21.2995-8.547 28.0535-.259 3.377 1.813 6.753 4.921 8.052 2.59 1.039 6.216 3.637 6.216 3.637l-48.689 76.887-3.885-79.745s7.251-4.415 7.251-6.234c.259-5.974-2.848-10.65-8.287-12.468-11.395-3.896-11.913-4.416-11.654-15.585.518-6.2341-4.403-5.4548-4.403-9.0914-.259-3.3768 3.367-7.2731 4.144-14.8059z" fill="#684337"/><path clip-rule="evenodd" d="m131.602 201.528-12.431-72.731c0-.78-10.101 3.117-10.619 3.376-15.5387 8.053-26.416 21.56-34.4444 37.145-5.4387 10.131-12.6902 23.378-16.316 29.872-1.036 2.078-3.8848 2.857-6.2157 1.818-10.3593-5.974-38.3295-21.559-38.3295-21.559l-20.71869 34.287 52.83269 28.833c6.2156 3.377 17.6109 9.351 24.0854 4.416 5.6977-3.897 10.3594-10.391 13.9851-15.845 3.6258-5.196 6.4746-8.572 9.5824-14.027 3.6258 9.87 6.7336 18.183 6.7336 28.573 0 20.261-10.8773 25.975-13.9851 43.119-1.5539 8.831-1.0359 27.014-1.0359 27.014h48.6891v-2.597z" fill="#c48686" fill-rule="evenodd"/><path clip-rule="evenodd" d="m119.171 128.797 16.834 72.731h-10.36s-18.388-25.976-20.977-46.756c-1.036-7.533.518-13.507 2.33-17.403 1.554-3.637 4.662-6.494 8.547-7.533 2.072-.78 3.626-1.039 3.626-1.039z" fill="#d09793" fill-rule="evenodd"/><path d="m161.903 128.797-41.437 72.731v114.291h96.342s3.107-30.391-13.468-50.392c-12.172-14.546-11.654-16.105-12.69-23.637-1.295-11.17 8.029-24.417 8.029-24.417s9.841 9.351 9.841 15.325v20.78 46.756h36.258v-61.562c0-4.415-.777-8.831-2.331-13.247-5.18-14.286-18.388-48.314-29.783-68.055-6.993-12.469-20.978-21.04-30.56-23.638-19.683-5.195-20.201-4.935-20.201-4.935z" fill="#d09793"/><path clip-rule="evenodd" d="m120.466 191.138 41.437-62.341s12.172-.78 7.252 19.221c-4.144 17.144-13.209 27.275-27.453 40.003-13.467 11.688-21.236 13.507-21.236 13.507z" fill="#e5bdbd" fill-rule="evenodd"/><path clip-rule="evenodd" d="m173.816 67.7546c-1.813-5.1951 1.813-7.5329-2.849-14.0267-5.179-7.2731-7.51-3.8963-16.316-12.7279-8.028-7.7926-17.351-1.5585-26.416-.7793-3.108.2598-6.216-.2597-9.323.2598-5.698.5195-13.985 7.5328-11.137 14.0267 1.036 2.5975 9.583 2.078 9.583 2.078s1.036 4.9353 4.662 7.7926c1.812 1.5585 3.884 1.8183 5.956 2.078 1.295.2598 3.108.7793 3.626 2.0781.518 1.5585-.777 3.3768.259 4.9353 1.813 2.8573 4.144 1.8183 4.403 3.8963.259 3.8963 3.625 7.7926 4.92 1.8183 2.331-6.7536 12.172-5.4549 15.28-.2598 1.813 3.1171 1.036 6.7536 0 9.8706-1.036 3.1171-2.331 5.4549 1.295 7.5329 1.813 1.039 0 4.1565.259 7.2735s2.331 5.974 2.331 5.974 9.841-16.3645 12.949-22.3389c4.403-9.0913 3.108-11.1694.518-19.4815z" fill="#d39b71" fill-rule="evenodd"/><path d="m150.508 95.0287c0 3.6366-2.849 6.4943-6.475 6.4943s-6.475-2.8577-6.475-6.4943c0-3.6365 2.849-6.4938 6.475-6.4938" stroke="#f8c77e" stroke-linecap="round" stroke-linejoin="round" stroke-miterlimit="10"/><circle cx="387.5" cy="319.5" fill="#d9d9d9" r="214.5"/></g><circle cx="78" cy="78" fill="#e8f3ff" r="78" transform="matrix(-1 0 0 1 325 282)"/><g mask="url(#b)"><path d="m247.231 329.63c17.088 0 30.943 13.581 31.636 30.154.693 6.445 3.926 9.898 3.926 12.89 0 2.533-2.54 2.763-3.695 5.295-.231.69-.462 1.841-.462 2.992.231 8.517-.231 10.128-6.235 12.43-1.847.921-4.156 1.381-6.004 2.302-8.082 4.604 12.932 24.63 12.932 24.63l-57.038 1.381c4.388-14.041 9.468-25.781 3.233-36.599-1.154-2.072-2.771-4.374-4.387-6.906-14.086-19.796 1.385-49.03 26.094-48.569z" fill="#a96c3f"/><path d="m247.231 329.629c10.16 0 19.397 4.834 25.17 12.431-.461.46-10.16 10.128-16.626.46l4.388 21.868.923 4.373c1.155 5.985 6.697 10.128 12.932 9.668l5.311-.46c-.231.69-.462 1.841-.462 2.992.693 9.438-1.385 10.819-8.313 13.351-.924.23-4.388 1.842-5.311 2.072-3.926 1.381-8.082-1.151-8.313-5.295l-1.848-24.86c-.462-11.509-17.781-8.747-14.779 2.302 3.926 11.97-4.849 20.257-15.01 16.574-4.387-7.136-9.929-14.732-9.467-24.17-.231-17.034 14.086-31.306 31.405-31.306z" fill="#42292d"/><path d="m212.593 346.433-.693 11.74c0 1.381-.693 2.762-2.309 3.452l-2.079.691.924 3.223 83.824-13.812-.923-2.992-12.008-.46-7.159-14.042c-6.004-11.279-17.319-19.566-34.407-16.803-16.857 2.762-24.939 15.422-25.17 29.003z" fill="#f3ba64"/><path d="m191.579 581.684h110.842v-110.49c0-5.294-.693-24.169-1.847-29.463-1.155-5.065-2.541-10.819-2.772-11.97-4.618-13.811-23.092-13.811-23.092-13.811h-50.802s-31.867 4.373-32.329 18.415z" fill="#f3ba64"/><path d="m223.908 415.95 32.329 27.622 18.473-27.622z" fill="#928c6f"/></g><path d="m14.1977 299.401c0 26.731 21.6699 48.401 48.4011 48.401 26.7313 0 48.4012-21.67 48.4012-48.401s-21.6699-48.401-48.4012-48.401c-26.7312 0-48.4011 21.67-48.4011 48.401z" fill="#b4c9cb"/><path d="m0 306.5c0 30.652 24.8482 55.5 55.5 55.5s55.5-24.848 55.5-55.5-24.8482-55.5-55.5-55.5-55.5 24.848-55.5 55.5z" fill="#b4c9cb"/><path d="m0 306.5c0 30.652 24.8482 55.5 55.5 55.5s55.5-24.848 55.5-55.5-24.8482-55.5-55.5-55.5-55.5 24.848-55.5 55.5z" fill="#b4c9cb"/><g mask="url(#c)"><path d="m7.84998 346.15-51.84998 2.34 1.1899 11.62 61.8501 7.48z" fill="#955646"/><path d="m55.7698 316.9c-11.5704 0-20.9501-9.38-20.9501-20.95 0-11.571 9.3797-20.95 20.9501-20.95 11.5703 0 20.9499 9.379 20.9499 20.95 0 11.57-9.3796 20.95-20.9499 20.95z" fill="#bf7461"/><path d="m51.4406 335.8s1.8999-13.94-5.3501-15.18-7.61-1.4-8.59-8.1c-.38-3.79-3.24-2.8-3.62-5s1.74-5.1 1-10.41l40.14 7.18c-5.31 12.2-9 16.09 3.25 26.74z" fill="#bf7461"/><path d="m75.45 328.45c7.77 6.71 15.6201 13.78 16.6101 28.7s2.1499 31.6 2.1499 31.6h-72.23l-4.32-20.81-9.81002-21.79 19.17002-15.27c9-7.62 16.63-5.65 19.18-5.23s29.25 2.8 29.25 2.8z" fill="#2a67b2"/><path d="m37.5601 294.73 1.1001 10.35" stroke="#0d2135" stroke-miterlimit="10" stroke-width=".5"/><path d="m38.1097 299.9 16.1901-1.15" stroke="#0d2135" stroke-miterlimit="10" stroke-width=".5"/><path d="m51.3496 299.27c0 2.64-3.1599 2.44-3.3099.14-.13-1.85-.4401-6-.4401-6-.002-1.345.1457-2.687.4401-4 .2885-1.265.9341-2.421 1.8599-3.33 1.8-1.69 4.5801-2 6.3901-3.64.6104-.625 1.1752-1.294 1.6899-2 1.2387-1.543 2.8207-2.776 4.62-3.6 1.6558-.749 3.4876-1.022 5.29-.79 1.7895.242 3.5148.83 5.08 1.73.9514.503 1.8186 1.15 2.5701 1.92.6415.714 1.1893 1.507 1.63 2.36 1.9638 3.554 3.1372 7.491 3.4399 11.54.0568 3.089-.4064 6.165-1.37 9.1-.68 2.49-1.68 5-3.63 6.7-.9709.833-2.1316 1.415-3.3801 1.695-1.2485.279-2.5465.248-3.78-.092s-2.3648-.977-3.2941-1.856c-.9294-.88-1.6284-1.974-2.0358-3.187-.7424-2.442-1.3532-4.922-1.8299-7.43z" fill="#fff"/><path d="m56.3601 304.39c-2.7669 0-5.01-2.243-5.01-5.01s2.2431-5.01 5.01-5.01c2.767 0 5.01 2.243 5.01 5.01s-2.243 5.01-5.01 5.01z" fill="#bf7461"/><path d="m46.2002 325.65 23.89-6.45 5.36 9.25-24.01 7.35z" fill="#1b4481"/><path d="m-23.8599 352.46s-9.13-1.79-12.74-2.55-4.3399 1.7-4.3399 1.7c-2.35-.13-2.2801 2.21-.9401 3.05-.68 1.7 3.9301 5.21 3.9301 5.21l5.7099 3.89c1.6786 1.145 3.6254 1.834 5.6501 2l12.6799 1 6.99999 2.23 30.49001 10c4.115 1.357 8.4669 1.844 12.78 1.43l11.26-1.06-12.79-18.67-5.2999 1.93-34.58013-3.42-3-.38c-7.59997-.83-7.69997-4.5-11.29997-7l-6.28-4.23" fill="#bf7461"/></g></svg>