<svg fill="none" height="491" viewBox="0 0 376 491" width="376" xmlns="http://www.w3.org/2000/svg" xmlns:xlink="http://www.w3.org/1999/xlink"><mask id="a" height="128" maskUnits="userSpaceOnUse" width="128" x="248" y="363"><circle cx="312" cy="427" fill="#ffefea" r="64"/></mask><mask id="b" height="184" maskUnits="userSpaceOnUse" width="184" x="0" y="206"><circle cx="92" cy="298" fill="#beb5a8" r="92"/></mask><mask id="c" height="105" maskUnits="userSpaceOnUse" width="105" x="227" y="137"><circle cx="279.5" cy="189.5" fill="#d9d9d9" r="52.5"/></mask><mask id="d" height="121" maskUnits="userSpaceOnUse" width="121" x="61" y="0"><circle cx="121.5" cy="60.5" fill="#b4c9cb" r="60.5"/></mask><g stroke="#0a66c2" stroke-opacity=".1" stroke-width="3"><path d="m122 61-32 237"/><path d="m122 60.9999 162 132.0001"/><path d="m122 61-32 237"/><path d="m90 293 219 141.5"/><path d="m286.293 186 25.707 244"/></g><path d="m376 427c0 35.346-28.654 64-64 64s-64-28.654-64-64 28.654-64 64-64 64 28.654 64 64z" fill="#ffefea"/><g mask="url(#a)"><path d="m290.625 460.937-36.675 11.18 21.439 32.877 26.104-36.226z" fill="#dc6240"/><path d="m307.85 396.299c17.925.075 28.875 21.54 18.52 35.91-6.807 9.955-10.679 17.621-6.682 25.821l-28.7 3.168c3.64-5.815 6.575-12.689 1.625-16.257-4.951-3.568-8.565-4.154-8.171-11.575.398-4.116-2.839-3.697-2.916-6.137-.009-2.024 3.298-6.613 3.213-11.077 1.241-11.397 11.226-20.162 23.111-19.853z" fill="#de9885"/><path d="m320.544 418.654c51.494-.685 22.295 43.4 46.213 50.178-51.592 3.367-19.481-37.886-46.213-50.178z" fill="#7f472d"/><path d="m287.797 404.78c-4.619-.209-6.762-4.873-6.917-5.167 4.024 1.798 9.286 1.37 12.997-.725 3.939-2.665 8.703-4.185 13.737-4.043 10.451.008 19.053 7.675 22.373 16.305 2.602 6.828 2.637 14.925-6.005 25.392-.817.879-1.842 1.791-3.035 1.665-5.88-.751-2.156-22.467-19.518-16.449-5.56-2.722-3.929-7.785-2.86-11.05-9.343 8.127-18.92-2.259-19.895-4.98 3.889.968 9.123-.948 9.123-.948z" fill="#7f472d"/><path d="m322.726 447.195 1.233 11.528c10.226 16.358 15.596 35.638 10.327 54.406-2.491 8.295-1.054 16.485-.898 24.669-.348 12.958-3.646 19.571-15.671 32.186-17.481-11.129-13.917-31.859-26.454-46.03 0 0-16.314-17.076-17.589-18.361 0 0 8.616-29.015 16.951-44.656l3.845-9.154z" fill="#e06f55"/><path d="m283.261 438.57c.778.193 5.745-.08 6.175.596 5.04-1.138 9.037-5.412 10.788-10.388.421-1.348 2.58-.526 2.038.735-2.099 5.459-6.531 10.337-12.281 11.697-.314.691-.991 1.121-1.735 1.135l-5.363-.195c-2.145-.079-1.974-3.625.378-3.58z" fill="#38434f"/><path d="m302.521 433.736c-5.335-3.845-6.543-11.286-2.699-16.621 3.845-5.336 11.286-6.544 16.621-2.7 5.336 3.845 6.544 11.286 2.7 16.622-3.845 5.335-11.286 6.543-16.622 2.699z" fill="#b4c6d9"/><path d="m319.084 395.221c1.979 6.929.858 18.413-1.648 25.964-1.596 5.27-2.067 10.251-9.337 6.847-3.869-1.504-1.234-6.943-.653-9.276 1.374-5.981.959-18.389.517-24.394.856-1.952 9.557-1.552 11.121.859z" fill="#e7eef5"/></g><circle cx="92" cy="298" fill="#f5cb91" r="92"/><g mask="url(#b)"><path d="m132.238 269.153c-.095.367-.207.734-.319 1.101-2.15 6.845-6.435 12.817-12.223 17.037-5.788 4.221-12.775 6.467-19.9311 6.408-7.1564-.059-14.1057-2.42-19.8241-6.735-5.7183-4.316-9.9039-10.358-11.9419-17.237-1.1025-3.795-1.5168-7.758-1.2248-11.7 0-.079 0-.175 0-.271.1924-2.416.6505-4.803 1.3678-7.118 1.8597-6.084 5.4127-11.509 10.2399-15.639 4.8273-4.129 10.7285-6.792 17.0123-7.675 6.2839-.883 12.6889.049 18.4619 2.689 5.774 2.64 10.677 6.877 14.133 12.213l.174.287c.191.288.383.591.558.894.175.304.253.431.365.639 4.304 7.626 5.447 16.643 3.183 25.107z" fill="#de9885"/><path d="m85.9991 344.871 20.3899-43.397c11.555-.479 16.171-.671 19.1-11.078 1.368-5.905 5.697-3.766 6.716-7.134s-1.687-8.427.605-16.679l-64.8117 3.192c5.8891 20.414 4.8708 28.267-11.6186 41.674z" fill="#de9885"/><path d="m131.266 265.178-8.039 16.807" stroke="#0d2135" stroke-miterlimit="10" stroke-width="2.5"/><path d="m127.254 273.574-24.288-11.38" stroke="#0d2135" stroke-miterlimit="10" stroke-width="2.5"/><path d="m144.27 251.947c-.232 1.199-.699 2.34-1.374 3.356-.676 1.017-1.547 1.888-2.562 2.564s-2.152 1.142-3.348 1.373c-1.196.23-2.426.219-3.618-.031-2.025-.354-3.959-1.114-5.683-2.235l-15.009-9.417c2.786 5.603-.111 10.439-6.494 20.319l-.143.223-1.099-.159-14.5001-2.187c-.1023.978-.2664 1.948-.4928 2.905-2.0373 8.938-8.5151 13.455-14.9294 13.902-1.38.109-2.7683.018-4.1221-.272-1.4853-.29-2.9118-.83-4.2185-1.596 1.2323-1.924 2.1107-4.054 2.5942-6.289-1.5609.984-3.3898 1.455-5.2303 1.346-1.8405-.108-3.6011-.791-5.0361-1.952 5.714-4.182 7.2434-8.81 7.7686-15.722 0-.079 0-.175 0-.271.1924-2.416.6505-4.803 1.3678-7.118 1.8598-6.084 5.4128-11.509 10.24-15.639 4.8273-4.129 10.7285-6.792 17.0122-7.675 6.2835-.884 12.6895.049 18.4625 2.689s10.676 6.877 14.132 12.213l.174.287c.191.304.367.607.558.894.191.288.254.431.365.639 4.202 6.703 6.24 8.14 15.185 7.853z" fill="#0d2135"/><path d="m98.3981 273.733c4.4039 0 7.9739-3.58 7.9739-7.996s-3.57-7.997-7.9739-7.997c-4.404 0-7.9738 3.581-7.9738 7.997s3.5698 7.996 7.9738 7.996z" fill="#de9885"/><path d="m63.7488 304.65c-.191.159-.3822.319-.5891.462l-.2705-.462z" fill="#fff"/><path d="m162 423h-169l13.13104-79.805c1.0719-6.413 4.05636-12.35 8.55976-17.028s10.3154-7.879 16.6687-9.179c8.1017-1.552 16.0217-3.938 23.6352-7.119 2.899-1.271 5.6392-2.878 8.165-4.789l22.8565 39.775 18.2078-38.306s4.187 1.213 10.903 3.192c5.078 1.485 11.587 3.416 18.813 5.603 4.727 1.438 8.936 4.224 12.113 8.019 3.176 3.794 5.184 8.433 5.777 13.352z" fill="#fff"/><path d="m63.7488 304.65c-.191.159-.3822.319-.5891.462l-.2705-.462z" fill="#d1dde9"/><path d="m115.127 323.723-15.089 11.173 8.292 10.071-24.8132 32.049v-10.374l-14.0387-19.153 4.5682-11.173-18.4143-10.758-.6699-15.705c2.899-1.271 5.6408-2.878 8.1665-4.788l22.855 39.774 18.2094-38.306s4.185 1.213 10.902 3.192z" fill="#d1dde9"/><path d="m104.208 306.613-41.3359-1.979 23.127 40.237z" fill="#9ac6ea"/><path d="m85.5064 305.719 7.6069 11.173-7.6069 7.868-6.7334-9.528z" fill="#0d2135"/><path d="m85.5064 324.76 5.9997 8.3-5.507 11.811-7.7515-13.487z" fill="#0d2135"/><path d="m111.164 386.705c4.011-1.488 7.724-3.683 10.966-6.48.655-.61 1.377-1.146 2.149-1.597l15.772-9.193c.333-.189.72-.259 1.098-.201.377.058.724.242.985.522s.42.64.452 1.022c.033.382-.063.763-.273 1.083-1.36 1.901-3.067 3.525-5.03 4.788-.181.124-.319.3-.396.505-.078.205-.092.43-.038.642.054.213.172.403.338.546.165.144.371.232.589.255l14.962 1.596c.454.045.877.251 1.192.582s.502.764.527 1.221c.027.488-.133.968-.446 1.342-.314.373-.758.613-1.242.669l-5.586.687.111 1.037c.059.492-.053.989-.317 1.408-.263.418-.663.733-1.131.891l-1.401.478.192.926c.094.518.058 1.052-.103 1.553s-.443.955-.821 1.32l-4.441 4.166c-1.07 1.018-2.473 1.613-3.948 1.676l-12.907.542c-1.55.067-3.073.447-4.473 1.118l-2.929 1.436z" fill="#de9885"/></g><circle cx="279.5" cy="189.5" fill="#e8f3ff" r="52.5"/><g mask="url(#c)"><path d="m284.94 154.489c-11.796-.998-22.899 7.647-25.096 19.198-.652 6.034-3.706 8.742-3.797 11.224-.091 2.481 3.225 2.16 2.677 6.465-.802 7.586-.308 8.02 7.187 11.304 7.672 3.237 1.809 18.038 1.809 18.038l33.245-.781c-10.437-14.97-8.145-15.584 1.131-27.52 11.273-14.36 1.414-37.045-17.156-37.928z" fill="#955646"/><path d="m224.306 243.502 23.943 9.65s35.502 57.017 36.508 82.641l77.591-20.791-44.075-87.606-54.243-4.933-42.545-7.123-25.57-32.65-17.293 14.462 23.214 29.501c5.924 7.296 13.552 13.191 22.47 16.849z" fill="#e09a33"/><path d="m313.548 209.761c-2.453-6.335 1.501-13.443.106-20.062-.533-2.693-1.9-4.972-3.314-7.429-.778-1.492-1.601-10.911-2.52-12.933-5.147-16.387-21.983-22.082-37.74-11.056 11.581 17.121 15.354 54.478-6.273 64.053.683 1.14 8.627 25.85 48.21 14.865 7.054-1.89 11.446-6.658 9.087-12.641 0 0-4.62-8.779-7.556-14.797z" fill="#ffd1c4"/></g><circle cx="121.5" cy="60.5" fill="#b4c9cb" r="60.5"/><g mask="url(#d)"><path d="m146.585 56.1798c0 .53 0 1.0698-.1 1.6098v.0503c0 .24 0 .47-.08.71-.593 4.4672-2.611 8.6242-5.755 11.853-3.144 3.2289-7.245 5.3573-11.695 6.0694-4.45.712-9.01-.0306-13.005-2.1172-3.994-2.0867-7.208-5.4062-9.165-9.4654 0 0 0-.0701 0-.1001-1.759-3.6708-2.406-7.7762-1.86-11.81.172-1.2907.464-2.5625.87-3.7998v-.0899l.06-.1801c.004-.0198.004-.0403 0-.0601 1.412-3.9735 3.987-7.4297 7.391-9.919 3.404-2.4892 7.478-3.8962 11.692-4.0375 4.215-.1414 8.374.9894 11.937 3.2451 3.563 2.2556 6.365 5.5314 8.04 9.4013 1.168 2.7275 1.737 5.6739 1.67 8.6402z" fill="#efb7a8"/><path d="m104.815 91.8599 26.57 3.56s-2.39-13.8703 4.8-15.3603 7.56-1.6699 8.3-8.3999c.24-3.8 3.14-2.9201 3.43-5.1001s-1.91-4.9999-1.33-10.3799l-39.86 8.6001c5.74 12 9.52 15.7601-2.3 26.8501z" fill="#efb7a8"/><path d="m180.564 139.83-18.11-35.88c-2.37-4.7035-6-8.6558-10.485-11.4173-4.484-2.7615-9.648-4.2237-14.915-4.2231h-36.24c-6.1094-.0015-11.9789 2.3808-16.3596 6.6401l-21.1499 20.5293c-2.0264 1.968-3.4195 4.496-4.0007 7.26-.5813 2.764-.3245 5.639.7377 8.257 1.0622 2.617 2.8813 4.858 5.2245 6.435s5.1038 2.419 7.9284 2.419z" fill="#fff"/><path d="m147.945 139.83v-13.88c-8.8-11.4-7.94-22.36-7.94-22.36v-15.2902h-7v23.2102h-27.36v-23.2102h-6.6305v15.8302c0 13.25-10.87 22.75-10.87 22.75v13z" fill="#0d2135"/><path d="m144.914 47.5396c-5.55 2.07-7.63 10.5701-15.32 11.3101l-9.57.9199c.09.17.17.35.24.52.223.4733.413.961.57 1.46 1.55 4.69.26 9.35-1.46 14-.57 1.57-1.2 3.1502-1.79 4.7202-.766 1.9452-1.9 3.7241-3.34 5.2398-.88 1.0015-1.889 1.8826-3 2.6201-1.591 1.0108-3.395 1.6374-5.27 1.8301-3.172.3514-6.3677-.4007-9.0498-2.1299-2.0824-1.4393-3.796-3.3495-5.0019-5.5752-1.2058-2.2258-1.8698-4.7044-1.9381-7.2349-.0681-5.1061 1.8088-10.0468 5.25-13.8198 3-3.36 6.8298-6.0002 9.2898-9.7202.507-.7901.93-1.6311 1.26-2.5098v-.0903l.06-.1797c.005-.0198.005-.0403 0-.0601 1.412-3.9734 3.988-7.4301 7.391-9.9194 3.404-2.4893 7.479-3.8958 11.693-4.0371 4.215-.1414 8.374.989 11.937 3.2446s6.364 5.5319 8.039 9.4019z" fill="#61382d"/><path d="m124.664 62.9297c2.767 0 5.01-2.2433 5.01-5.0103 0-2.7669-2.243-5.0097-5.01-5.0097s-5.01 2.2428-5.01 5.0097c0 2.767 2.243 5.0103 5.01 5.0103z" fill="#efb7a8"/><path d="m106.224 20.4401-2.62 32.5097h43l1.36-33.6601c.04-1.2352-.366-2.4432-1.142-3.4048s-1.872-1.6128-3.088-1.835c-1.91-.27-3.76.6101-5.56 1.3101-2.099.9675-4.443 1.2707-6.72.8696-1.145-.418-2.313-.7684-3.5-1.0498-2-.24-3.88.7703-5.82 1.2403-1.778.4203-3.631.3997-5.4-.0601-1.145-.3923-2.31-.7261-3.489-1-1.768-.2992-3.582.0908-5.071 1.0898-.88.5-1.95 1.5003-1.95 3.9903z" fill="#fff"/><path d="m146.915 44.6196h-42.66" stroke="#c1ddf4" stroke-miterlimit="10"/></g></svg>